PathFileType	4	(X/Y/Z)	C:/Users/opensim2020/Desktop/walking_exp_matlab/subject02_walking15_straight_04.trc	
DataRate	CameraRate	NumFrames	NumMarkers	Units	OrigDataRate	OrigDataStartFrame	OrigNumFrames	
100.00	100.00	8	42	mm	100.00	1698	152	
Frame#	Time	LFHD			RFHD			LBHD			RBHD			C7			T10			CLAV			STRN			RBAK			LSHO			LUPA			LELB			LFRM			LWRA			LWRB			LFIN			RSHO			RUPA			RELB			RFRM			RWRA			RWRB			RFIN			LASI			RASI			LPSI			RPSI			LTHI			LKNE			LTIB			LANK			LHEE			LTOE			RTHI			RKNE			RTIB			RANK			RHEE			RTOE			*39			*40			*41			
		X1	Y1	Z1	X2	Y2	Z2	X3	Y3	Z3	X4	Y4	Z4	X5	Y5	Z5	X6	Y6	Z6	X7	Y7	Z7	X8	Y8	Z8	X9	Y9	Z9	X10	Y10	Z10	X11	Y11	Z11	X12	Y12	Z12	X13	Y13	Z13	X14	Y14	Z14	X15	Y15	Z15	X16	Y16	Z16	X17	Y17	Z17	X18	Y18	Z18	X19	Y19	Z19	X20	Y20	Z20	X21	Y21	Z21	X22	Y22	Z22	X23	Y23	Z23	X24	Y24	Z24	X25	Y25	Z25	X26	Y26	Z26	X27	Y27	Z27	X28	Y28	Z28	X29	Y29	Z29	X30	Y30	Z30	X31	Y31	Z31	X32	Y32	Z32	X33	Y33	Z33	X34	Y34	Z34	X35	Y35	Z35	X36	Y36	Z36	X37	Y37	Z37	X38	Y38	Z38	X39	Y39	Z39	X40	Y40	Z40	X41	Y41	Z41	X42	Y42	Z42	

20	0.190	-962.30780	860.27356	1736.71240	-1106.71362	865.74567	1725.06689	-952.16095	981.83783	1647.63403	-1094.17029	998.89063	1632.96851	-1018.56488	1028.04309	1509.37183	-1038.17578	1073.66406	1236.72827	-1027.51404	884.09985	1447.85547	-1054.28699	829.35352	1278.58643	-1087.00464	1088.94263	1339.90417	-849.91498	935.74286	1476.73755	-761.95496	976.37695	1285.08911	-741.11029	1011.38440	1154.78381	-705.76025	1046.01965	1035.82727	-699.38989	1034.52026	896.37030	-681.09247	1081.73840	920.94855	-660.40198	1089.86487	858.64978	-1211.54407	978.64319	1493.66956	-1314.30127	1010.27765	1316.40942	-1371.19202	977.88568	1182.41504	-1401.69910	893.50574	1097.17480	-1397.83398	783.97485	1023.31958	-1424.17493	821.32312	990.56671	-1443.20203	755.47668	975.46619	-941.13837	837.29144	970.29895	-1187.20520	871.49341	951.08728	-992.25909	1054.38208	1027.30347	-1109.33691	1071.27856	1027.01819	-901.03729	831.48334	668.70758	-959.32635	818.27155	474.82852	-974.37347	868.54047	287.97574	-1030.06726	868.97723	73.09773	-1084.99036	903.77686	46.72196	-1015.20758	713.86218	39.80514	-1271.18701	1012.99213	663.10046	-1263.68176	1056.49805	463.42856	-1248.04797	1211.78162	363.36514	-1197.22156	1353.58997	242.49034	-1125.40100	1389.71838	235.19498	-1223.18970	1340.17847	79.49046	-1044.70020	973.42480	1794.01953	-3356.93311	2846.05493	1034.26941			 
21	0.200	-962.73730	846.98590	1739.68066	-1107.19873	851.94171	1728.41968	-952.86719	968.23248	1650.44434	-1095.08984	985.02460	1636.16309	-1019.37250	1014.06372	1512.68665	-1038.89197	1059.85974	1239.77625	-1028.89941	870.62488	1450.82666	-1055.85083	815.84808	1281.49329	-1087.72998	1075.62305	1343.12415	-851.01709	921.49036	1479.77234	-763.29327	960.66803	1287.29883	-742.72418	994.37860	1156.29431	-708.57117	1026.67358	1036.31323	-704.13702	1012.61560	896.98962	-684.68921	1060.20557	920.29547	-665.56281	1066.61951	857.05292	-1212.79553	965.63971	1496.30371	-1313.91003	999.31635	1318.33752	-1369.29883	968.51056	1183.41565	-1399.65222	886.45270	1095.69312	-1395.49304	778.99475	1018.76721	-1421.79797	817.23560	987.24469	-1440.67090	751.95636	969.70453	-940.69293	824.90424	973.50696	-1187.66003	858.11816	954.27533	-993.08838	1041.25098	1030.39600	-1109.66663	1058.53967	1029.82666	-900.83447	823.82404	669.82159	-958.81921	814.51044	474.92142	-973.52533	866.62982	288.49493	-1029.83875	869.10278	73.40564	-1085.08167	904.05505	47.07338	-1014.99744	713.90094	39.71893	-1273.14233	989.96509	664.71240	-1266.29590	1028.34033	464.46353	-1249.45020	1184.21057	366.33862	-1196.81262	1326.80200	247.06915	-1125.08960	1363.51868	237.70998	-1228.49890	1312.63965	85.20564	-1044.95081	959.56976	1796.95203	-3360.57104	2845.29077	1034.21558			 
22	0.210	-963.31592	832.55438	1742.30872	-1107.87280	838.01746	1731.66528	-953.98035	954.19232	1653.08057	-1096.07556	971.10901	1639.42847	-1020.27679	1000.13770	1516.06152	-1039.63611	1046.21265	1242.87903	-1030.37524	857.09143	1453.88635	-1057.34717	802.43689	1284.48816	-1088.31653	1062.31445	1346.27747	-852.25348	906.98584	1482.81311	-764.89240	944.74432	1289.51392	-744.56464	976.85553	1157.67700	-711.34625	1006.74774	1036.55530	-709.40680	989.87115	897.56824	-688.58307	1037.59167	919.65076	-670.61023	1042.37476	855.77515	-1214.07227	952.87469	1499.13062	-1313.49695	988.42303	1320.49512	-1367.49500	959.24457	1184.47375	-1397.51147	879.75677	1094.24695	-1393.19348	774.44464	1014.17365	-1418.75281	813.82288	983.40674	-1437.75781	749.17517	963.42468	-940.41626	812.52869	976.47351	-1188.93286	844.85773	957.99756	-993.84625	1028.26917	1033.71875	-1109.77686	1045.87061	1032.89246	-900.74683	816.63727	670.20667	-958.19708	811.30756	474.87799	-972.47864	865.10339	288.76282	-1029.62097	869.12860	73.41042	-1084.92310	904.15924	47.17968	-1014.68054	714.00647	39.61351	-1274.54980	967.41962	666.70300	-1268.51819	1000.20795	466.36081	-1250.77954	1156.18616	368.84653	-1197.22839	1299.02454	250.24416	-1125.46460	1336.28491	239.03920	-1233.54517	1282.68201	90.18367	-1045.15515	945.69739	1800.10950	-3356.89087	2846.16626	1034.34326			 
23	0.220	-963.94708	819.40344	1745.10547	-1108.54700	824.08813	1734.84253	-954.93677	940.48657	1655.92798	-1097.16296	957.28693	1642.72327	-1021.30060	986.31451	1519.44556	-1040.34546	1032.77405	1246.06909	-1031.71790	843.76080	1456.80530	-1058.67126	789.17535	1287.41150	-1088.76855	1048.93408	1349.30005	-853.46771	892.78424	1486.20239	-766.40179	928.48615	1291.80798	-746.33240	959.22083	1159.46399	-714.20648	986.08472	1037.01489	-715.01288	966.58099	898.25336	-692.84821	1014.15247	919.12061	-676.03839	1016.83801	854.54883	-1215.18323	939.95544	1502.04614	-1313.23547	977.53302	1322.88147	-1365.60645	950.05255	1185.78076	-1395.34460	873.29138	1092.86389	-1390.61597	770.36731	1009.35724	-1415.75488	810.93744	979.73126	-1434.55078	747.07562	956.83258	-940.34521	799.98145	979.31812	-1190.76343	831.92090	962.27460	-994.40179	1014.96375	1036.83374	-1109.84619	1033.04492	1036.15259	-900.62537	810.44092	670.69830	-957.54681	808.87030	474.85513	-971.66290	864.03333	288.68539	-1029.38916	869.28174	73.39781	-1084.69507	904.33014	47.28141	-1014.23578	714.28442	39.53560	-1275.58313	945.40326	669.01184	-1270.14087	972.13757	468.65588	-1251.97095	1127.81299	370.89590	-1198.04370	1270.50208	252.31955	-1126.18335	1308.21667	239.05266	-1238.29211	1251.06213	94.30398	-1045.80066	931.73438	1803.35156	-3357.01172	2845.96167	1034.25989			 
24	0.230	-964.81372	805.49359	1747.66785	-1109.32227	810.08984	1737.86560	-956.00073	926.77753	1658.95203	-1098.29553	943.45874	1645.94055	-1022.44202	972.55853	1522.70972	-1041.00085	1019.37994	1249.20032	-1033.27258	830.37738	1459.75867	-1059.93225	775.98218	1290.25769	-1089.20850	1035.64441	1352.13452	-854.76917	878.55585	1489.55432	-768.01135	912.19318	1294.03955	-748.32977	941.01642	1161.10205	-717.51569	965.00800	1037.44629	-721.22083	942.57208	899.22638	-697.27649	990.04138	918.62695	-681.70502	990.65955	853.63660	-1216.37317	926.93384	1504.83521	-1313.02832	966.57050	1325.37219	-1363.82422	940.82312	1187.14917	-1393.18152	867.08966	1091.55518	-1388.05493	766.88135	1004.47888	-1412.99780	808.76178	976.30847	-1431.09753	745.65100	950.00903	-940.59052	787.28784	981.98785	-1192.46704	819.91370	966.30243	-994.82861	1001.91791	1039.89978	-1109.72241	1019.89099	1039.29761	-900.59039	804.64514	671.36530	-956.98505	807.37555	475.00183	-971.10950	863.45221	288.63766	-1029.20972	869.49371	73.43372	-1084.48071	904.50116	47.38332	-1013.76019	714.57147	39.44011	-1276.25549	923.93042	671.49518	-1271.61340	944.29572	471.16159	-1252.77515	1098.92432	372.35123	-1199.13062	1241.15784	253.06888	-1127.46289	1279.19446	237.82968	-1242.73352	1217.84705	96.61039	-1046.68860	917.65472	1806.31409						 
25	0.240	-965.97278	791.27130	1749.97595	-1110.17249	796.08429	1740.65308	-957.13019	912.82770	1661.65417	-1099.39246	929.65497	1648.98901	-1023.70044	958.92719	1525.81567	-1041.62573	1006.00989	1252.13684	-1034.87415	816.96881	1462.40173	-1061.18518	762.76276	1293.00867	-1089.38367	1022.07025	1354.58057	-856.06793	864.48267	1492.87915	-769.66254	895.50122	1296.30334	-750.47284	922.37561	1162.85278	-721.09045	943.20245	1037.86853	-727.94257	917.71057	900.10510	-702.17316	965.31305	918.33679	-687.62158	963.72638	852.97772	-1217.54895	914.07678	1507.43213	-1312.94202	955.54047	1327.86719	-1362.13281	931.61737	1188.54688	-1391.09436	861.12848	1090.34155	-1385.38159	763.84583	999.50562	-1410.13953	806.92151	972.76367	-1427.46289	744.84393	943.08813	-941.15405	774.68097	984.65308	-1194.74377	806.60675	971.03387	-995.06073	988.94458	1042.73145	-1109.53149	1006.55658	1042.35999	-900.68726	799.13239	672.09344	-956.43964	806.25067	475.12878	-970.97424	863.50085	288.79620	-1029.12817	869.73108	73.45869	-1084.21411	904.31738	47.29572	-1013.22577	715.04413	39.30867	-1276.89478	902.96832	674.15753	-1272.81299	916.78082	473.81342	-1254.04028	1070.26147	373.89447	-1200.69604	1210.84875	252.37335	-1129.15186	1249.31116	235.34502	-1246.60999	1183.60669	97.72121	-1047.23047	903.53943	1809.23486						 
26	0.250	-966.74292	777.34119	1752.65625	-1111.33887	782.06036	1743.21106	-958.56586	898.84937	1664.00623	-1100.66016	915.86163	1651.90198	-1025.00928	945.33759	1528.69067	-1042.23474	992.70453	1254.88867	-1036.15796	803.78210	1465.14063	-1062.28271	749.54004	1295.55847	-1089.71350	1008.63910	1356.84241	-857.42487	850.59509	1496.11548	-771.38452	878.78717	1298.38220	-752.71637	903.45892	1164.27173	-724.80981	921.00562	1038.29321	-734.94934	892.47784	901.19690	-707.26678	939.69617	917.91754	-693.72089	936.03778	852.45972	-1218.53223	901.22137	1509.79065	-1312.82556	944.34509	1330.19727	-1360.55383	922.32593	1189.94177	-1388.92517	855.33777	1089.06897	-1382.80042	761.22156	994.47638	-1407.53784	805.34045	969.67700	-1423.63867	744.60962	936.15753	-941.96143	762.27496	987.12573	-1196.59778	793.88318	975.22198	-995.13629	975.92273	1045.28564	-1109.33447	992.98840	1045.30530	-901.07819	793.53247	672.38947	-956.01038	805.25061	475.33926	-971.10498	863.80768	289.22772	-1029.31262	869.92407	73.39001	-1084.14868	904.53003	47.40797	-1012.71082	715.36023	39.29439	-1277.48547	882.49469	676.93988	-1273.85339	889.62469	476.75659	-1254.96069	1040.93396	374.58664	-1202.69910	1179.81274	250.32004	-1131.42493	1218.82202	231.62144	-1249.93054	1147.91272	97.38520	-1048.39661	889.31409	1811.93884						 
27	0.260	-967.73737	763.19415	1754.47424	-1112.37927	768.00574	1745.38599	-959.57629	885.23956	1666.45178	-1101.79944	902.02130	1654.39600	-1026.37097	931.79865	1531.24219	-1042.79211	979.42322	1257.36951	-1037.66626	790.37860	1467.62500	-1063.23462	736.28528	1297.81519	-1090.09180	995.15332	1358.88892	-858.79163	836.87280	1499.15186	-773.10120	861.87427	1300.56396	-754.96606	884.51672	1165.66260	-728.73828	898.36487	1038.63440	-742.26862	866.78564	902.11530	-712.49054	913.76593	917.79138	-700.09772	907.97205	852.23401	-1219.63367	888.27777	1511.95264	-1312.80750	933.05511	1332.36987	-1359.08374	912.99738	1191.25537	-1386.87024	849.67645	1087.87427	-1379.82434	758.99957	989.44507	-1404.54797	804.09839	966.39746	-1419.83423	744.78577	929.36163	-942.78796	749.92700	989.31641	-1198.05774	780.96002	979.36005	-995.15619	962.95251	1047.62073	-1109.31909	979.41980	1048.09338	-901.63226	788.14734	672.99371	-955.83350	804.34222	475.62640	-971.35815	864.02814	289.80594	-1029.25415	869.96844	73.65168	-1084.16064	904.65283	47.53238	-1012.32849	715.60028	39.26354	-1278.07153	862.43408	679.77753	-1274.57019	862.92151	479.96689	-1256.42078	1011.89734	375.09979	-1204.86487	1148.13501	247.02953	-1133.99719	1187.79993	226.55267	-1252.72852	1110.43091	96.04466	-1049.40723	875.04871	1814.35315						 
